<?xml version="1.0" standalone="no"?>
<!DOCTYPE svg PUBLIC "-//W3C//DTD SVG 20010904//EN"
 "http://www.w3.org/TR/2001/REC-SVG-20010904/DTD/svg10.dtd">
<svg version="1.0" xmlns="http://www.w3.org/2000/svg"
 width="1500.000000pt" height="844.000000pt" viewBox="0 0 1500.000000 844.000000"
 preserveAspectRatio="xMidYMid meet">

<g transform="translate(0.000000,844.000000) scale(0.100000,-0.100000)"
fill="#000000" stroke="none">
<path d="M3895 6552 c-49 -16 -123 -78 -156 -131 l-15 -24 -260 62 c-142 34
-271 61 -285 61 -14 0 -33 -8 -41 -17 -9 -10 -62 -165 -119 -345 l-103 -328
-52 0 c-67 0 -262 -25 -351 -46 -123 -27 -283 -86 -399 -144 l-113 -58 -32 24
c-85 62 -245 72 -344 22 -67 -35 -128 -97 -162 -166 -24 -49 -28 -69 -28 -142
0 -76 4 -93 33 -152 19 -40 50 -82 76 -105 l43 -38 5 -120 c6 -143 30 -223
104 -342 92 -148 299 -317 484 -394 44 -19 80 -36 80 -39 0 -3 -21 -18 -46
-34 -122 -77 -228 -240 -260 -401 -33 -161 -5 -353 72 -491 64 -116 187 -226
285 -255 35 -11 39 -16 66 -93 l29 -81 -70 -6 c-171 -16 -312 -136 -331 -285
-8 -60 9 -130 35 -144 12 -7 327 -10 918 -10 l899 0 19 21 c15 17 19 36 19
103 0 71 -4 87 -30 135 -56 101 -174 171 -303 179 -63 4 -72 7 -66 21 4 9 18
46 32 84 13 37 30 67 37 67 7 0 44 16 82 35 138 69 255 226 298 400 40 158 15
363 -62 508 -42 79 -145 190 -206 222 -35 19 -48 35 -27 35 23 0 187 86 268
140 151 102 256 217 326 356 46 93 66 178 66 287 l0 88 53 49 c30 28 65 73 82
107 27 51 30 68 30 148 0 77 -4 98 -27 147 -56 120 -159 188 -296 196 -89 5
-143 -9 -212 -55 l-36 -23 -114 58 c-199 100 -399 158 -638 183 -72 8 -111 16
-109 23 2 6 42 131 88 278 61 193 88 268 99 268 27 0 455 -103 468 -113 6 -5
12 -21 12 -36 0 -69 76 -172 155 -213 55 -29 167 -36 220 -14 100 42 155 104
181 207 26 101 -7 203 -90 276 -78 68 -180 89 -281 55z m179 -125 c45 -25 86
-93 86 -141 0 -41 -38 -115 -71 -139 -35 -25 -92 -37 -136 -27 -51 12 -84 39
-110 90 -29 56 -29 96 0 151 29 55 85 89 147 89 28 0 60 -9 84 -23z m-852
-732 c245 -37 442 -107 615 -220 405 -264 474 -659 170 -968 -45 -46 -111
-103 -146 -127 -92 -62 -271 -144 -386 -178 -186 -55 -278 -67 -525 -67 -247
0 -339 12 -525 67 -116 34 -295 117 -386 179 -147 99 -265 244 -309 380 -136
416 280 831 936 933 124 20 429 20 556 1z m-1387 -156 c71 -20 71 -25 -9 -102
-76 -76 -144 -168 -177 -243 -11 -24 -23 -44 -27 -44 -10 0 -49 59 -61 93 -15
40 -13 119 4 160 45 109 159 166 270 136z m2403 -18 c49 -25 96 -78 112 -126
7 -20 10 -66 8 -101 -3 -51 -10 -71 -35 -106 -39 -54 -48 -56 -62 -17 -23 65
-107 185 -182 260 l-78 76 37 16 c20 9 44 18 52 21 27 10 108 -3 148 -23z
m-1776 -1451 c157 -42 264 -54 488 -54 225 0 334 13 489 55 40 11 75 18 76 17
11 -11 25 -240 25 -391 0 -283 -33 -511 -106 -737 -67 -206 -177 -389 -285
-475 l-44 -35 -156 0 -156 0 -41 33 c-171 135 -305 435 -369 822 -14 86 -18
168 -18 370 0 231 9 415 21 415 2 0 36 -9 76 -20z m-217 -357 c0 -269 10 -376
49 -563 8 -36 12 -67 10 -69 -6 -7 -86 57 -118 96 -142 167 -170 437 -66 643
21 42 112 160 123 160 1 0 2 -120 2 -267z m1548 88 c34 -76 57 -175 57 -249 0
-128 -56 -288 -133 -377 -35 -41 -114 -102 -121 -94 -3 2 4 45 14 94 37 185
45 277 45 543 l0 264 54 -58 c31 -33 67 -86 84 -123z m-1360 -1148 c33 -5 43
-14 74 -62 19 -31 51 -75 70 -98 l34 -43 -245 0 c-241 0 -246 0 -246 20 0 12
9 38 20 60 46 90 173 143 293 123z m1215 -23 c77 -35 132 -98 132 -155 l0 -25
-246 0 -245 0 34 43 c19 23 51 68 71 99 26 42 43 58 63 61 51 9 144 -3 191
-23z"/>
<path d="M2459 5290 c-124 -21 -200 -156 -155 -274 83 -216 397 -157 396 75
-1 126 -115 220 -241 199z"/>
<path d="M3379 5290 c-124 -21 -200 -156 -155 -274 83 -216 397 -157 396 75
-1 126 -115 220 -241 199z"/>
<path d="M2472 4574 c-81 -57 62 -176 263 -219 107 -23 331 -24 440 -1 91 19
204 71 253 116 42 38 42 86 0 109 -25 15 -29 14 -55 -7 -112 -89 -214 -117
-423 -116 -202 1 -297 26 -394 103 -44 35 -53 37 -84 15z"/>
<path d="M9207 5066 c-45 -17 -82 -49 -105 -91 -15 -26 -17 -83 -20 -463 l-3
-433 -52 47 c-58 53 -185 116 -265 133 -85 18 -238 14 -326 -9 -336 -86 -574
-407 -617 -836 -36 -348 100 -717 329 -900 77 -61 220 -129 317 -150 100 -22
256 -22 349 0 84 20 166 63 225 116 24 22 45 40 47 40 2 0 4 -12 4 -26 0 -30
14 -60 44 -92 75 -84 229 -69 289 28 l22 35 0 1245 0 1245 -24 38 c-41 66
-141 100 -214 73z m-453 -1131 c291 -76 437 -478 325 -895 -67 -248 -239 -382
-475 -368 -152 9 -263 86 -338 236 -56 110 -77 199 -83 347 -19 464 235 767
571 680z"/>
<path d="M11124 5071 c-49 -12 -94 -50 -115 -95 -17 -38 -19 -73 -19 -469 l0
-429 -47 42 c-182 160 -481 198 -717 91 -258 -117 -432 -369 -492 -715 -23
-133 -14 -346 20 -485 31 -120 87 -247 150 -335 55 -77 165 -181 239 -225 135
-80 330 -121 487 -101 142 17 231 54 316 132 l41 38 7 -31 c17 -85 91 -143
181 -142 77 0 140 41 164 106 8 20 11 411 11 1257 0 846 -3 1237 -11 1257 -29
78 -127 125 -215 104z m-469 -1135 c76 -20 133 -53 190 -110 62 -62 97 -123
138 -241 31 -88 32 -94 31 -265 0 -198 -16 -277 -79 -406 -45 -92 -138 -182
-222 -215 -85 -33 -253 -34 -336 0 -197 78 -327 402 -287 712 30 233 134 424
269 493 82 43 206 56 296 32z"/>
<path d="M11779 5047 c-137 -51 -221 -170 -221 -310 0 -122 49 -214 150 -281
132 -87 305 -66 416 50 153 159 105 421 -96 525 -54 28 -193 37 -249 16z m189
-177 c89 -55 104 -176 30 -249 -65 -63 -151 -65 -218 -5 -79 72 -68 199 23
254 43 27 121 26 165 0z"/>
<path d="M12705 4777 c-26 -14 -48 -37 -62 -67 -22 -41 -23 -57 -23 -246 l0
-201 -80 -6 c-44 -4 -93 -13 -109 -21 -64 -34 -102 -117 -82 -179 29 -86 94
-126 204 -127 l67 0 0 -712 c0 -487 4 -726 11 -753 14 -51 64 -100 116 -114
96 -26 207 33 232 124 7 28 11 262 11 748 l0 707 71 0 c45 0 84 6 106 16 82
39 114 141 71 223 -30 57 -72 79 -171 87 l-77 7 0 181 c-1 204 -9 259 -48 299
-57 60 -163 76 -237 34z"/>
<path d="M11827 4265 c-47 -16 -81 -46 -101 -90 -14 -29 -16 -133 -16 -864 0
-909 -2 -872 59 -924 92 -77 219 -50 279 58 15 27 17 106 20 829 2 576 -1 815
-9 855 -14 67 -63 123 -124 140 -50 14 -61 13 -108 -4z"/>
<path d="M5145 4251 c-22 -10 -48 -28 -58 -39 -46 -51 -46 -51 -47 -897 0
-521 4 -813 10 -837 27 -95 128 -153 221 -128 53 14 106 63 119 108 6 23 10
222 10 517 0 282 4 507 11 545 20 125 99 250 193 305 23 13 82 35 131 49 207
60 278 134 245 256 -36 133 -194 179 -350 100 -45 -22 -91 -58 -147 -116 l-83
-83 0 42 c0 93 -35 149 -112 181 -49 21 -94 20 -143 -3z"/>
<path d="M6674 4255 c-141 -31 -262 -96 -368 -200 -164 -159 -256 -355 -297
-630 -16 -111 -18 -144 -8 -229 47 -439 284 -743 643 -826 228 -52 458 -27
675 75 166 79 280 176 302 259 24 90 -23 188 -98 202 -52 10 -99 -9 -187 -75
-150 -112 -287 -161 -445 -161 -211 1 -374 88 -458 246 -32 61 -63 165 -63
216 l0 27 593 3 c573 3 593 4 627 23 76 44 95 137 65 320 -51 314 -230 572
-480 691 -147 70 -343 93 -501 59z m284 -320 c86 -20 137 -48 197 -109 80 -80
145 -233 145 -341 l0 -35 -465 0 -465 0 0 23 c1 47 31 163 58 221 93 196 307
293 530 241z"/>
</g>
</svg>
