<?xml version="1.0" standalone="no"?>
<!DOCTYPE svg PUBLIC "-//W3C//DTD SVG 20010904//EN"
 "http://www.w3.org/TR/2001/REC-SVG-20010904/DTD/svg10.dtd">
<svg version="1.0" xmlns="http://www.w3.org/2000/svg"
 width="512.000000pt" height="512.000000pt" viewBox="0 0 512.000000 512.000000"
 preserveAspectRatio="xMidYMid meet">

<g transform="translate(0.000000,512.000000) scale(0.100000,-0.100000)"
fill="#000000" stroke="none">
<path d="M3706 4389 c-63 -15 -157 -70 -211 -124 -42 -42 -63 -75 -112 -173
-1 -2 -155 31 -342 72 -187 42 -351 76 -365 76 -13 0 -29 -7 -36 -15 -9 -11
-159 -930 -160 -981 0 -7 -46 -13 -127 -17 -327 -16 -671 -112 -950 -265 l-71
-40 -54 52 c-271 261 -740 152 -850 -197 -24 -77 -26 -204 -4 -279 33 -114
141 -240 254 -295 l57 -28 0 -175 c0 -193 11 -253 75 -395 77 -173 243 -364
430 -497 254 -181 617 -312 995 -359 127 -16 461 -16 585 0 676 86 1206 402
1415 843 61 129 88 245 89 383 0 61 -3 126 -7 147 -7 35 -7 37 25 43 51 11
158 69 207 111 95 82 161 226 161 353 0 135 -46 246 -143 343 -104 103 -253
157 -405 145 -142 -11 -249 -63 -345 -166 l-53 -58 -35 24 c-67 47 -296 153
-414 192 -212 69 -492 121 -661 121 -40 0 -74 3 -74 8 -1 14 134 887 137 891
3 4 505 -104 606 -130 36 -9 37 -11 37 -53 0 -182 103 -345 267 -424 77 -36
80 -37 198 -37 110 0 125 2 179 28 155 72 252 197 277 357 34 223 -103 444
-320 510 -68 21 -185 25 -255 9z m276 -122 c69 -34 141 -109 176 -185 22 -47
27 -71 27 -142 0 -77 -3 -92 -33 -152 -65 -132 -185 -209 -327 -209 -101 0
-174 29 -247 99 -108 103 -142 230 -98 373 19 64 29 80 88 139 90 90 144 111
268 107 74 -2 100 -8 146 -30z m-1187 -1148 c248 -25 507 -98 720 -203 379
-187 609 -437 690 -752 22 -83 25 -252 6 -339 -80 -371 -424 -696 -911 -863
-143 -49 -299 -86 -455 -108 -146 -21 -466 -24 -605 -5 -460 61 -843 228
-1100 477 -211 205 -310 415 -310 659 0 532 537 990 1313 1120 188 31 431 36
652 14z m-1722 -129 c56 -21 156 -92 164 -116 2 -6 -29 -38 -69 -70 -98 -79
-190 -174 -250 -259 -51 -71 -138 -237 -138 -262 0 -34 -119 35 -179 103 -101
114 -125 261 -65 393 49 109 125 177 243 218 85 30 206 27 294 -7z m3248 14
c106 -31 199 -109 252 -209 30 -56 32 -67 32 -160 0 -90 -3 -106 -28 -158 -39
-78 -112 -151 -189 -187 -94 -45 -99 -43 -136 48 -62 151 -214 347 -361 464
l-44 35 43 47 c108 117 279 165 431 120z"/>
<path d="M1784 2536 c-181 -57 -227 -297 -81 -421 118 -101 309 -61 377 80 30
61 30 156 1 213 -58 113 -178 165 -297 128z"/>
<path d="M3182 2541 c-51 -13 -111 -58 -142 -108 -60 -94 -50 -208 26 -292 57
-64 110 -85 198 -79 126 8 216 97 224 223 2 35 -1 80 -8 100 -16 48 -72 111
-123 137 -45 22 -126 31 -175 19z"/>
<path d="M1749 1599 c-23 -25 -29 -40 -29 -75 0 -38 6 -50 39 -83 89 -89 280
-171 486 -207 142 -25 471 -26 610 0 207 37 388 113 482 202 39 37 43 45 43
88 0 39 -5 53 -29 77 -24 23 -38 29 -74 29 -37 0 -53 -6 -89 -37 -82 -69 -235
-125 -415 -152 -93 -14 -353 -14 -446 0 -180 27 -333 83 -415 152 -36 31 -52
37 -89 37 -37 0 -50 -5 -74 -31z"/>
</g>
</svg>
